<svg xmlns="http://www.w3.org/2000/svg" viewBox="0 0 70.96 76.91"><defs><style>.cls-1{fill:#f1026a;}</style></defs><g id="Layer_2" data-name="Layer 2"><g id="Layer_1-2" data-name="Layer 1"><path class="cls-1" d="M71,67.36a9.52,9.52,0,0,1-9.43,9.55,9.29,9.29,0,0,1-7.08-3.15l-19-22.56-19,22.56a9.26,9.26,0,0,1-7.07,3.15A9.39,9.39,0,0,1,2.36,61.3l21-23.8L3.82,15.72A9.36,9.36,0,0,1,1.46,9.43,9.49,9.49,0,0,1,10.89,0a9,9,0,0,1,7.3,3.59L35.48,24.48,52.77,3.59A9,9,0,0,1,60.07,0,9.49,9.49,0,0,1,69.5,9.43c0,2.13-.68,4.38-1.69,5.39L47.6,37.5l21,23.8A9.49,9.49,0,0,1,71,67.36Z"/></g></g></svg>