<svg xmlns="http://www.w3.org/2000/svg" viewBox="0 0 64.9 96"><defs><style>.cls-1{fill:#fff;}</style></defs><g id="Layer_2" data-name="Layer 2"><g id="Layer_1-2" data-name="Layer 1"><path class="cls-1" d="M36.35,29.45H28a4,4,0,0,0-3.89,4.66L25.4,41a4,4,0,0,0,3.89,3.24h5.8A4,4,0,0,0,39,41l1.26-6.92A4,4,0,0,0,36.35,29.45Z"/><path class="cls-1" d="M23.16,88.6l6.24,6.24a3.94,3.94,0,0,0,5.59,0l6.24-6.24a4,4,0,0,0,1.13-3.23L38.68,52.23a4,4,0,0,0-3.93-3.51H29.63a3.94,3.94,0,0,0-3.92,3.51L22,85.37A4,4,0,0,0,23.16,88.6Z"/><path class="cls-1" d="M40.74,24.86l4,2.56a2.07,2.07,0,0,0,1.14.32h.28a2,2,0,0,0,1.24-.62L64.57,7a1.33,1.33,0,0,0-.22-2L58.61.43A2.17,2.17,0,0,0,56.17.32l-22,14.21a3.33,3.33,0,0,1-3.47,0L8.73.32A2.16,2.16,0,0,0,6.3.43L.55,5.05A1.34,1.34,0,0,0,.33,7l17.21,20.1a2,2,0,0,0,1.23.62,2.13,2.13,0,0,0,1.41-.31l3.95-2.56L27,23l3.66-2.37a3.31,3.31,0,0,1,3.47,0Z"/></g></g></svg>