<svg xmlns="http://www.w3.org/2000/svg" viewBox="0 0 80.05 96.73"><defs><style>.cls-1{fill:#fbbd0e;}.cls-2{fill:#fff;}</style></defs><g id="Layer_2" data-name="Layer 2"><g id="Layer_1-2" data-name="Layer 1"><path class="cls-1" d="M54.65,7.76l-1.88,16.6a.7.7,0,0,1-.7.63H30a.72.72,0,0,1-.72-.63L27.41,7.76a.69.69,0,0,1,0-.32l0-.12a.71.71,0,0,1,.61-.48.74.74,0,0,1,.69.36l5.72,9.93L40.43.48A.71.71,0,0,1,41.11,0a.72.72,0,0,1,.68.48L47.65,17,53.26,7.2a.72.72,0,0,1,1.31.12l0,.12A.85.85,0,0,1,54.65,7.76Z"/><path class="cls-2" d="M40.08,19.27c22.91,0,40,15.94,40,38.73S63,96.73,40.08,96.73,0,80.79,0,58,17.18,19.27,40.08,19.27Zm0,17.06c-12.46,0-20.43,9.43-20.43,21.67s8,21.67,20.43,21.67S60.4,70.13,60.4,58,52.43,36.33,40.08,36.33Z"/></g></g></svg>