<svg xmlns="http://www.w3.org/2000/svg" viewBox="0 0 81.08 89.59"><defs><style>.cls-1{fill:#fff;}.cls-2{fill:#fbbd0e;}</style></defs><g id="Layer_2" data-name="Layer 2"><g id="Layer_1-2" data-name="Layer 1"><path class="cls-1" d="M71,80a9.52,9.52,0,0,1-9.43,9.55,9.29,9.29,0,0,1-7.08-3.15l-19-22.57-19,22.57a9.26,9.26,0,0,1-7.07,3.15A9.39,9.39,0,0,1,2.36,74l21-23.8L3.82,28.4a9.36,9.36,0,0,1-2.36-6.29,9.49,9.49,0,0,1,9.43-9.43,8.93,8.93,0,0,1,7.3,3.59L35.48,37.15,52.77,16.27a8.92,8.92,0,0,1,7.3-3.59,9.49,9.49,0,0,1,9.43,9.43c0,2.13-.68,4.38-1.69,5.39L47.6,50.18,68.6,74A9.49,9.49,0,0,1,71,80Z"/><path class="cls-2" d="M78.57,18.35a1.51,1.51,0,0,1-.18.26l-6.45,7a.93.93,0,0,1-1.14.25l-9.9-5.85h0L51,14.13A.92.92,0,0,1,50.73,13l3.19-9a1,1,0,0,1,.14-.29,2.25,2.25,0,0,1,0-2.49,2.07,2.07,0,0,1,2.72-1,2.07,2.07,0,0,1,.42,2.85,2.44,2.44,0,0,1-1.46,1.14L56.28,8a3,3,0,0,0,1.38,2.2,3.13,3.13,0,0,0,3,0l6.66-3.44a2.45,2.45,0,0,1,.35-1.63,2.07,2.07,0,0,1,2.72-1A2.08,2.08,0,0,1,70.85,7a2.48,2.48,0,0,1-1.23,1h0l.07,7.5a3.1,3.1,0,0,0,1.41,2.7,3,3,0,0,0,2.57.19l3.59-1.28a2.45,2.45,0,0,1,.31-1.85,2.06,2.06,0,0,1,2.71-1,2.06,2.06,0,0,1,.42,2.86A2.24,2.24,0,0,1,78.57,18.35Z"/></g></g></svg>