<svg xmlns="http://www.w3.org/2000/svg" viewBox="0 0 103.21 129.01"><defs><style>.cls-1{fill:#fff;}</style></defs><g id="Layer_2" data-name="Layer 2"><g id="Layer_1-2" data-name="Layer 1"><path class="cls-1" d="M103.21,64.51a6.45,6.45,0,0,0-6.45-6.45h-49L62.64,43.28a6.45,6.45,0,0,0,0-9.12l0,0a6.46,6.46,0,0,0-9.13,0l0,0L27.67,59.93a6.49,6.49,0,0,0-1.35,2.13,6.4,6.4,0,0,0,0,4.9,6.7,6.7,0,0,0,1.35,2.13l25.81,25.8a6.48,6.48,0,1,0,9.16-9.16L47.8,71h49A6.45,6.45,0,0,0,103.21,64.51ZM19.35,129H83.86a19.35,19.35,0,0,0,19.35-19.35V90.31a6.45,6.45,0,1,0-12.9,0v19.35a6.45,6.45,0,0,1-6.45,6.45H19.35a6.45,6.45,0,0,1-6.45-6.45V19.35a6.45,6.45,0,0,1,6.45-6.45H83.86a6.45,6.45,0,0,1,6.45,6.45V38.7a6.45,6.45,0,1,0,12.9,0V19.35A19.35,19.35,0,0,0,83.86,0H19.35A19.35,19.35,0,0,0,0,19.35v90.31A19.35,19.35,0,0,0,19.35,129Z"/></g></g></svg>