<svg xmlns="http://www.w3.org/2000/svg" viewBox="0 0 269.75 190.46"><g id="Layer_2" data-name="Layer 2"><g id="Layer_1-2" data-name="Layer 1"><path d="M125.7,110.62a15.56,15.56,0,0,1-15.43,15.61,15.17,15.17,0,0,1-11.58-5.14l-31-36.93L36.58,121.09A15.14,15.14,0,0,1,25,126.23a15.36,15.36,0,0,1-11.58-25.54L47.79,61.74l-32-35.65A15.32,15.32,0,0,1,12,15.8,15.52,15.52,0,0,1,27.4.37,14.62,14.62,0,0,1,39.34,6.25l28.3,34.17L95.93,6.25A14.63,14.63,0,0,1,107.88.37,15.52,15.52,0,0,1,123.31,15.8c0,3.49-1.1,7.17-2.75,8.82L87.48,61.74l34.36,38.95A15.48,15.48,0,0,1,125.7,110.62Z"/><path d="M194.6,0C232.09,0,260,26.09,260,63.39s-27.93,63.4-65.42,63.4S129,100.69,129,63.39,157.12,0,194.6,0Zm0,27.93c-20.39,0-33.44,15.43-33.44,35.46,0,19.85,13.05,35.47,33.44,35.47,20.22,0,33.26-15.62,33.26-35.47C227.86,43.36,214.82,27.93,194.6,27.93Z"/><path d="M.54,148.57a5.11,5.11,0,0,1,10.22.29l-.52,18.28c-.13,4.62,2.23,8,7.66,8.17s7.93-3.11,8.06-7.73l.51-18.28a5.12,5.12,0,0,1,10.23.29l-.53,18.58c-.27,9.69-6,16.37-18.52,16S-.26,176.78,0,167.2Z"/><path d="M42.89,178.88l.82-29.09a5,5,0,1,1,10,.28L53,175.71l11.74.34a4.38,4.38,0,1,1-.24,8.76l-16.48-.47C44.61,184.25,42.79,182.33,42.89,178.88Z"/><path d="M76.63,180.59,77.36,155l-7.07-.2a4.39,4.39,0,0,1,.25-8.77l24.06.68a4.39,4.39,0,1,1-.24,8.77l-7-.2-.73,25.65a5,5,0,1,1-10.05-.29Z"/><path d="M102.34,181.32l.84-29.86a5,5,0,1,1,10,.29l-.84,29.85a5,5,0,1,1-10-.28Z"/><path d="M153.57,182.76l.61-21.73-10.05,24.62a2.88,2.88,0,0,1-5.43-.15l-8.64-25.15-.61,21.73a5,5,0,1,1-10-.28l.75-26.82a8.1,8.1,0,0,1,15.8-2.3l5.88,17.42L148.74,153a8.1,8.1,0,0,1,15.64,3.19l-.76,26.82a5,5,0,1,1-10.05-.29Z"/><path d="M206.09,184.25a5.08,5.08,0,0,1-5.22,4.93,5,5,0,0,1-4.69-3.69l-1-3.37-16-.45L178,185a5,5,0,0,1-9.83-1.8,4.52,4.52,0,0,1,.4-1.74l11.12-27.16a8.88,8.88,0,0,1,8.45-5.49,8.76,8.76,0,0,1,8.08,5.95l9.62,27.75A5.76,5.76,0,0,1,206.09,184.25Zm-13.55-10.68-4.71-15.51-5.57,15.22Z"/><path d="M214.16,184.47l.72-25.64-7.07-.2a4.38,4.38,0,1,1,.25-8.76l24.07.67a4.39,4.39,0,1,1-.25,8.77l-6.95-.2-.73,25.65a5,5,0,1,1-10-.29Z"/><path d="M239.88,184.44l.8-28.33c.1-3.45,2-5.27,5.47-5.17l19.51.55a4.24,4.24,0,0,1-.24,8.47l-14.78-.42-.18,6.49,14.37.41a4.26,4.26,0,0,1-.24,8.52l-14.37-.4-.2,7,14.78.42a4.22,4.22,0,0,1,4.09,4.32,4.29,4.29,0,0,1-4.33,4.15l-19.51-.55C241.6,189.81,239.79,187.89,239.88,184.44Z"/></g></g></svg>