<svg xmlns="http://www.w3.org/2000/svg" viewBox="0 0 510.36 612"><defs><style>.cls-1{fill:#c6c6c6;}</style></defs><g id="Layer_2" data-name="Layer 2"><g id="Layer_1-2" data-name="Layer 1"><path class="cls-1" d="M508.15,36.61a27.11,27.11,0,0,0-26.71-22.46H422.65A27.11,27.11,0,0,0,398.83,0H111.53A27.1,27.1,0,0,0,87.71,14.15H28.93A27.11,27.11,0,0,0,2.22,36.61c-.33,1.84-7.72,45.7,6.42,93.81,10.21,34.76,33,76.66,83.58,102.79C83.91,254,73.72,276.8,61.23,302a14.16,14.16,0,0,0,2.19,15.78c38.37,42.41,81.89,71,128.2,84.61-.08,1-.15,2-.15,3.07v1.8a35.89,35.89,0,0,0,19,31.67c1.73,22-3.29,58.06-15.08,86.62H144.13a20.62,20.62,0,0,0-20.62,20.61v45.2A20.62,20.62,0,0,0,144.13,612h222.1a20.62,20.62,0,0,0,20.62-20.62v-45.2a20.62,20.62,0,0,0-20.62-20.61H315C303.18,497,298.15,461,299.87,439a35.87,35.87,0,0,0,19-31.67v-1.8c0-1-.07-2.05-.15-3.07,46.31-13.61,89.83-42.2,128.2-84.61A14.16,14.16,0,0,0,449.12,302c-12.48-25.19-22.68-48-31-68.79,50.57-26.13,73.4-68,83.62-102.81C515.86,82.31,508.47,38.46,508.15,36.61Zm-447,80.12a168.81,168.81,0,0,1-6.93-48.35H87.71a27.12,27.12,0,0,0,36.91,10.78c0,.23.06.46.08.7,2.31,20.92.43,53.22-14.08,101.36C86.41,166.64,69.84,145.08,61.15,116.73ZM171,336.82c-21.08,5.47-43.71-13.41-55.34-28.84-2.85-3.78-5.37-7.56-4.13-12.54.73-2.92,2.82-5.34,4.45-7.81a228.55,228.55,0,0,0,18.26-34.25,435.52,435.52,0,0,0,25.31-77c4.63-19.89,7.61-40,11.45-60,5.33,33.09,4,67.33-2.57,100.13a278.79,278.79,0,0,1-10.24,37.27c-5.32,15.16-11.89,31.08-21,44.7C146.61,312.76,157.41,326.51,171,336.82ZM449.21,116.73c-8.7,28.38-25.3,50-49.55,64.54-14.46-47.84-16.51-80.39-13.91-102.1a27.13,27.13,0,0,0,36.9-10.79h33.49A168.42,168.42,0,0,1,449.21,116.73Z"/></g></g></svg>