<svg xmlns="http://www.w3.org/2000/svg" viewBox="0 0 69.22 69.22"><defs><style>.cls-1{fill:#c6c6c6;}</style></defs><g id="Layer_2" data-name="Layer 2"><g id="Layer_1-2" data-name="Layer 1"><path class="cls-1" d="M34.61,0A34.61,34.61,0,1,0,69.22,34.61,34.6,34.6,0,0,0,34.61,0Zm0,8.65a25.48,25.48,0,0,1,8.13,1.65c-1.81,1.73-3.89,3.28-3.54,4.84s6,1.13,6,4.33c0,2.33-3.64,3-1.13,5.71,3,3-5.54,8.48-5.71,12.46C38.07,44.82,45.6,46,51.57,46c3.63,0,4.59,1.73,4.33,3.81A26.06,26.06,0,0,1,34.52,60.65a24.75,24.75,0,0,1-9.17-1.9c1.91-3.81-2.42-11.33-6.49-13.76-2-2-6.23-1.21-8.65-2.16a25.15,25.15,0,0,1-1.64-7.27A1.53,1.53,0,0,1,10,34.78c1.64,0,3.89,3.29,5.11,2.95,1.55-.35-6.41-11.34-2.69-13.5,1.73-1,5.19,3.37,4.07-1.39-1-4.41,3.11-2.42,5.71-3.54,2.25-1,3.89-3.55,1.13-5.11a9.51,9.51,0,0,1-1.91-1.64A25.66,25.66,0,0,1,34.61,8.74Zm20,9.43a28.32,28.32,0,0,1,3.8,6.23v.26c-.34.61-.95,1-1.9,1.91-2.42,2.42-2.77-1.82-3.81-2.69-1.12-1-5.19.18-5.71-1.12C46.38,21.11,51.31,19,54.6,18.08Z"/></g></g></svg>