<svg xmlns="http://www.w3.org/2000/svg" viewBox="0 0 45.92 77.36"><defs><style>.cls-1{fill:#c6c6c6;}</style></defs><g id="Layer_2" data-name="Layer 2"><g id="Layer_1-2" data-name="Layer 1"><path class="cls-1" d="M21.33,27.28c2.81-1.91,5.05-3.48,5.05-5.84s-1.79-4.37-6.62-4.37a13.32,13.32,0,0,0-7.52,2.47,7.76,7.76,0,0,1-4,1A8.27,8.27,0,0,1,0,12.24,8.12,8.12,0,0,1,4.15,5.05,33.19,33.19,0,0,1,21.89,0c14.82,0,24,7.19,24,18,0,9.32-5.73,13.59-10.67,17.29-3.48,2.47-6.51,4.72-6.73,8.09,0,.33.11.56.11.9v.89a8.82,8.82,0,0,1-8.42,6.63,8,8,0,0,1-7.86-6.85,9.81,9.81,0,0,1-.56-3.26C11.79,33.91,17.18,30.09,21.33,27.28Zm.79,29a10.56,10.56,0,0,1,0,21.11,10.56,10.56,0,1,1,0-21.11Z"/></g></g></svg>